<svg xmlns="http://www.w3.org/2000/svg" width="256" height="256"><path fill-opacity=".016" d="M0 128.004v128.004l128.25-.254 128.25-.254.254-127.75L257.008 0H0v128.004m.485.496c0 70.4.119 99.053.265 63.672.146-35.38.146-92.98 0-128C.604 29.153.485 58.1.485 128.5" fill="#1976D2" fill-rule="evenodd"/><path fill-opacity=".187" d="M126 29.744c-7.183.331-7.669.511-11.5 4.261l-4 3.914-31.179.291c-29.689.276-31.31.388-33.938 2.352-1.518 1.134-3.687 3.303-4.821 4.821-1.964 2.628-2.076 4.248-2.351 33.938l-.289 31.179-18.961 19.058C4.982 143.61 0 149.243 0 151c0 1.755 4.984 7.406 18.911 21.442L37.822 191.5l.343 8.182c.266 6.331.809 8.807 2.401 10.939 4.138 5.542 6.971 6.844 15.752 7.235 8.124.362 8.216.396 12.99 4.848 5.767 5.379 8.041 5.26 14.206-.747l4.015-3.911 60.163-.273c58.987-.268 60.217-.313 62.924-2.335 1.518-1.134 3.688-3.304 4.822-4.822 1.979-2.649 2.073-4.196 2.348-38.622l.286-35.862 6.714-3.728c8.439-4.686 21.982-17.999 25.604-25.169 8.392-16.616 6.8-32.48-4.491-44.729-5.137-5.573-15.177-11.652-23.399-14.167-3.889-1.19-6.863-2.852-8.453-4.724-3.401-4.002-7.83-5.602-15.765-5.694-3.73-.043-6.107-.304-5.282-.579.825-.275 2.06-.675 2.744-.888 1.908-.593-.455-5.001-3.401-6.344-2.294-1.045-46.373-1.288-66.343-.366m92 61.224v26.102l2.076-1.111c4.126-2.208 13.626-12.721 16.246-17.977 4.57-9.172 3.159-19.58-3.475-25.619-2.435-2.217-8.687-5.593-12.597-6.802l-2.25-.696v26.103M68.773 109.75 68.5 127.5l-17.25.274-17.25.273V158h35v35h30v-35h35V128.047l-17.25-.273-17.25-.274-.273-17.75L98.954 92H69.046l-.273 17.75" fill="#1976D2" fill-rule="evenodd"/><path fill-opacity=".127" d="m115 34.5-4.416 4.5-31.042.004c-29.024.003-31.25.13-34.243 1.956C39.155 44.706 39 45.657 39 79.71v30.81L20 129.5C3.912 145.571 1 148.933 1 151.432c0 2.495 2.937 5.902 19 22.042l19 19.091v7.267c0 12.827 4.263 17.158 16.896 17.164 7.385.004 7.404.011 12.207 4.504 6.393 5.979 9.029 5.979 14.897 0l4.416-4.5 60.042-.004c57.787-.003 60.162-.077 63.243-1.956 6.237-3.802 6.299-4.233 6.299-43.432v-35.491l5.927-3.159c12.754-6.797 23.145-17.467 28.829-29.6 2.446-5.222 2.744-6.999 2.744-16.358 0-11.19-1.105-14.661-7.223-22.697C242.504 58.033 224.851 48 218.593 48c-.801 0-2.423-1.357-3.604-3.015-3.41-4.789-6.795-5.985-16.939-5.985-5.367 0-9.05-.407-9.05-1 0-.55 1.323-1 2.941-1 3.789 0 4.637-1.469 2.622-4.544L192.954 30h-73.538L115 34.5m102.603 30.231c-1.057 1.056-.683 52.102.387 52.763.544.336 4.756-3.125 9.36-7.691 6.685-6.632 8.801-9.468 10.51-14.091 1.177-3.183 2.14-7.135 2.14-8.782 0-6.85-5.831-15.215-13.284-19.055-5.448-2.808-8.423-3.834-9.113-3.144M68 109.5V127H32.949l.276 15.75.275 15.75 17.25-.27 17.25-.271v36.092l15.75-.276 15.75-.275.5-18c.275-9.9.838-17.887 1.25-17.75.412.137 8.175.25 17.25.25H135v-31h-35V92H68v17.5" fill="#1976D2" fill-rule="evenodd"/><path fill-opacity=".388" d="M46.035 40.842c-6.826 3.661-7.098 5.197-6.8 38.504l.265 29.666 34.995-35.006L109.489 39h-30.01c-27.24 0-30.327.17-33.444 1.842m129.669 1.586C166.391 46.494 165 47.543 165 50.5c0 4.643 2.367 5.029 10.765 1.756 11.644-4.537 17.681-5.718 29.344-5.738l10.609-.018-1.417-2.164c-2.682-4.093-7.226-5.337-19.452-5.324-10.702.012-11.793.206-19.145 3.416m21.417 21.476c-1.108.702-1.321 4.481-1.086 19.235.431 27.1 1.311 23.758-9.035 34.308-4.95 5.047-9 9.545-9 9.994 0 1.359 15.878-.469 22.913-2.638 3.623-1.117 8.724-3.112 11.337-4.434l4.75-2.403V64.262l-3.75-.62c-5.442-.9-14.528-.752-16.129.262M211 138.685c-12.143 4.863-29.671 6.335-44.5 3.736-2.829-.496-5.141 1.618-40.495 37.026L88.51 217h59.011c55.409 0 59.22-.112 62.444-1.842 6.958-3.731 7.093-4.602 6.798-43.753l-.263-34.923-5.5 2.203M39 199.531c0 12.713 5.153 17.819 17.426 17.267l6.619-.298-12.023-11.984L39 192.531v7" fill="#1976D2" fill-rule="evenodd"/></svg>